<svg width="18" height="18" viewBox="0 0 18 18" fill="none" xmlns="http://www.w3.org/2000/svg">
<path d="M14.625 10.5C14.625 13.6012 12.102 16.125 9 16.125C5.898 16.125 3.375 13.6012 3.375 10.5C3.375 8.81399 3.8565 7.61323 4.9845 6.48448C5.20575 6.26248 5.45625 6.04048 5.71575 5.81098C6.77775 4.87048 7.875 3.89776 7.875 2.24926C7.875 2.11126 7.95151 1.98373 8.07301 1.91848C8.19451 1.85323 8.34226 1.85999 8.45776 1.93724C8.50276 1.96724 12.6862 4.83447 10.5412 9.76047C11.0445 9.47922 11.6468 9.01797 12.0165 8.30171C12.2535 7.84272 12.3742 7.32076 12.3742 6.74926C12.3742 6.597 12.4665 6.45975 12.6075 6.402C12.747 6.34425 12.9097 6.37724 13.017 6.486C14.0392 7.52474 14.625 8.98799 14.625 10.5Z" fill="#2E2E2E"/>
</svg>
