<svg width="24" height="24" viewBox="0 0 24 24" fill="none" xmlns="http://www.w3.org/2000/svg">
<rect x="0.5" y="0.5" width="23" height="23" rx="3.5" stroke="#F4F4F4"/>
<path d="M16 8.83333H12C11.724 8.83333 11.5 9.05733 11.5 9.33333V13.5H6.5V8C6.5 7.724 6.276 7.5 6 7.5C5.724 7.5 5.5 7.724 5.5 8V16C5.5 16.276 5.724 16.5 6 16.5C6.276 16.5 6.5 16.276 6.5 16V14.5H17.5V16C17.5 16.276 17.724 16.5 18 16.5C18.276 16.5 18.5 16.276 18.5 16V11.3333C18.5 9.72133 17.612 8.83333 16 8.83333ZM12.5 13.5V9.83333H16C17.0513 9.83333 17.5 10.282 17.5 11.3333V13.5H12.5ZM9 12.5C10.0113 12.5 10.8333 11.6773 10.8333 10.6667C10.8333 9.656 10.0113 8.83333 9 8.83333C7.98867 8.83333 7.16667 9.656 7.16667 10.6667C7.16667 11.6773 7.98867 12.5 9 12.5ZM9 9.83333C9.45933 9.83333 9.83333 10.2073 9.83333 10.6667C9.83333 11.126 9.45933 11.5 9 11.5C8.54067 11.5 8.16667 11.126 8.16667 10.6667C8.16667 10.2073 8.54067 9.83333 9 9.83333Z" fill="#757575"/>
</svg>
