<svg width="24" height="24" viewBox="0 0 24 24" fill="none" xmlns="http://www.w3.org/2000/svg">
<rect x="0.5" y="0.5" width="23" height="23" rx="3.5" stroke="#F4F4F4"/>
<path d="M17.1667 8.91199V8.66732C17.1667 7.65665 16.3447 6.83398 15.3333 6.83398H8.66667C7.65533 6.83398 6.83333 7.65665 6.83333 8.66732V8.91199C6.066 9.13132 5.5 9.83065 5.5 10.6673V14.0007C5.5 15.6127 6.388 16.5007 8 16.5007H8.83333V17.334C8.83333 17.61 9.05733 17.834 9.33333 17.834C9.60933 17.834 9.83333 17.61 9.83333 17.334V16.5007H14.1667V17.334C14.1667 17.61 14.3907 17.834 14.6667 17.834C14.9427 17.834 15.1667 17.61 15.1667 17.334V16.5007H16C17.612 16.5007 18.5 15.6127 18.5 14.0007V10.6673C18.5 9.83065 17.934 9.13132 17.1667 8.91199ZM8.66667 7.83398H15.3333C15.7927 7.83398 16.1667 8.20798 16.1667 8.66732V8.91199C15.3993 9.13132 14.8333 9.83065 14.8333 10.6673V12.834H9.16667V10.6673C9.16667 9.83065 8.60067 9.13132 7.83333 8.91199V8.66732C7.83333 8.20798 8.20733 7.83398 8.66667 7.83398ZM17.5 14.0007C17.5 15.052 17.0513 15.5007 16 15.5007H8C6.94867 15.5007 6.5 15.052 6.5 14.0007V10.6673C6.5 10.208 6.874 9.83398 7.33333 9.83398C7.79267 9.83398 8.16667 10.208 8.16667 10.6673V13.334C8.16667 13.61 8.39067 13.834 8.66667 13.834H15.3333C15.6093 13.834 15.8333 13.61 15.8333 13.334V10.6673C15.8333 10.208 16.2073 9.83398 16.6667 9.83398C17.126 9.83398 17.5 10.208 17.5 10.6673V14.0007Z" fill="#757575"/>
</svg>
