<svg width="24" height="24" viewBox="0 0 24 24" fill="none" xmlns="http://www.w3.org/2000/svg">
<rect x="0.5" y="0.5" width="23" height="23" rx="3.5" stroke="#F4F4F4"/>
<path d="M17.1667 8.33346V15.6668C17.1667 16.4941 16.494 17.1668 15.6667 17.1668H14.6667C14.3907 17.1668 14.1667 16.9428 14.1667 16.6668C14.1667 16.3908 14.3907 16.1668 14.6667 16.1668H15.6667C15.9427 16.1668 16.1667 15.9428 16.1667 15.6668V8.33346C16.1667 8.05746 15.9427 7.83346 15.6667 7.83346H14.6667C14.3907 7.83346 14.1667 7.60946 14.1667 7.33346C14.1667 7.05746 14.3907 6.83346 14.6667 6.83346H15.6667C16.494 6.83346 17.1667 7.50612 17.1667 8.33346ZM13.272 5.83012C13.6287 6.11612 13.8333 6.54279 13.8333 7.00013V17.0001C13.8333 17.4575 13.6287 17.8841 13.272 18.1701C13.0027 18.3861 12.674 18.5001 12.3367 18.5001C12.2273 18.5001 12.1173 18.4881 12.0087 18.4641L8.00867 17.5755C7.31667 17.4215 6.83398 16.8194 6.83398 16.1108V7.88947C6.83398 7.1808 7.31733 6.57879 8.00867 6.42479L12.0087 5.53612C12.456 5.43678 12.9153 5.54479 13.272 5.83012ZM12.8333 7.00013C12.8333 6.84746 12.7647 6.70546 12.646 6.61013C12.556 6.53813 12.4467 6.50013 12.334 6.50013C12.2973 6.50013 12.2613 6.50413 12.2247 6.51213L8.22465 7.4008C7.99398 7.45213 7.83333 7.6528 7.83333 7.8888V16.1101C7.83333 16.3461 7.99465 16.5468 8.22465 16.5981L12.2247 17.4868C12.374 17.5201 12.5273 17.4841 12.646 17.3888C12.7647 17.2935 12.8333 17.1514 12.8333 16.9988V7.00013ZM11.0133 11.3335H11.0067C10.6387 11.3335 10.3433 11.6321 10.3433 12.0001C10.3433 12.3681 10.6453 12.6668 11.0133 12.6668C11.3813 12.6668 11.68 12.3681 11.68 12.0001C11.68 11.6321 11.3813 11.3335 11.0133 11.3335Z" fill="#757575"/>
</svg>
