<svg width="24" height="24" viewBox="0 0 24 24" fill="none" xmlns="http://www.w3.org/2000/svg">
<rect x="0.5" y="0.5" width="23" height="23" rx="3.5" stroke="#F4F4F4"/>
<path d="M18.5 15.3333V13.3333C18.5 12.5133 18.2667 11.8867 17.8333 11.46V8C17.8333 6.38667 16.9467 5.5 15.3333 5.5H8.66667C7.05333 5.5 6.16667 6.38667 6.16667 8V11.46C5.73333 11.8867 5.5 12.5133 5.5 13.3333V15.3333V17V18C5.5 18.2733 5.72667 18.5 6 18.5C6.27333 18.5 6.5 18.2733 6.5 18V17.5H17.5V18C17.5 18.2733 17.7267 18.5 18 18.5C18.2733 18.5 18.5 18.2733 18.5 18V15.3333ZM7.16667 8C7.16667 6.94667 7.61333 6.5 8.66667 6.5H15.3333C16.3867 6.5 16.8333 6.94667 16.8333 8V10.94C16.7267 10.9133 16.62 10.8867 16.5 10.8733V9.24C16.5 8.46667 15.8267 7.84 15 7.84H13C12.6133 7.84 12.2667 7.98 12 8.20667C11.7333 7.98 11.3867 7.84 11 7.84H9C8.17333 7.84 7.5 8.46667 7.5 9.24V10.8733C7.38 10.8867 7.27333 10.9133 7.16667 10.94V8ZM15.5 9.23334V10.8333H12.5V9.23334C12.5 9.01334 12.7267 8.83333 13 8.83333H15C15.2733 8.83333 15.5 9.01334 15.5 9.23334ZM11.5 9.23334V10.8333H8.5V9.23334C8.5 9.01334 8.72667 8.83333 9 8.83333H11C11.2733 8.83333 11.5 9.01334 11.5 9.23334ZM6.5 14.8333V13.3333C6.5 12.28 6.94667 11.8333 8 11.8333H16C17.0533 11.8333 17.5 12.28 17.5 13.3333V14.8333H6.5ZM17.5 16.5H6.5V15.8333H17.5V16.5Z" fill="#757575"/>
</svg>
