<svg width="20" height="20" viewBox="0 0 20 20" fill="none" xmlns="http://www.w3.org/2000/svg">
<path d="M3.33746 18.1242C2.95663 18.1242 2.58678 17.9741 2.30678 17.6941C1.91178 17.3 1.77594 16.7275 1.95094 16.2008L2.65163 14.1167C2.73329 13.8608 2.72589 13.6041 2.63006 13.4016C2.13673 12.3408 1.87831 11.1659 1.87831 9.99919C1.87831 5.52002 5.52252 1.875 10.0017 1.875C14.4817 1.875 18.1259 5.51919 18.1259 9.99919C18.1259 14.4792 14.4817 18.1233 10.0017 18.1233C8.83585 18.1233 7.66089 17.8642 6.60589 17.3734C6.39922 17.2742 6.14089 17.2675 5.87672 17.3517L3.80255 18.0483C3.64838 18.0992 3.49163 18.1242 3.33746 18.1242ZM10.0009 3.125C6.21087 3.125 3.1275 6.20835 3.1275 9.99919C3.1275 10.985 3.34667 11.9775 3.76084 12.8692C3.99084 13.3533 4.02081 13.9358 3.83998 14.505L3.13665 16.5975C3.10165 16.7017 3.15496 16.7758 3.18996 16.8108C3.22496 16.8458 3.30002 16.8992 3.40419 16.8642L5.4859 16.165C6.06423 15.9808 6.64834 16.0092 7.13751 16.2433C8.02251 16.655 9.01504 16.8742 10.0009 16.8742C13.7917 16.8742 16.8751 13.7908 16.8751 10C16.8751 6.20917 13.7917 3.125 10.0009 3.125ZM10.8501 7.5C10.8501 7.04 10.4776 6.66667 10.0167 6.66667H10.0084C9.5484 6.66667 9.17913 7.04 9.17913 7.5C9.17913 7.96 9.55674 8.33333 10.0167 8.33333C10.4767 8.33333 10.8501 7.96 10.8501 7.5ZM10.6251 12.5V10C10.6251 9.655 10.3451 9.375 10.0001 9.375C9.65506 9.375 9.37506 9.655 9.37506 10V12.5C9.37506 12.845 9.65506 13.125 10.0001 13.125C10.3451 13.125 10.6251 12.845 10.6251 12.5Z" fill="#2E2E2E"/>
</svg>
