<svg width="20" height="20" viewBox="0 0 20 20" fill="none" xmlns="http://www.w3.org/2000/svg">
<path d="M9.16667 16.042H5C3.68583 16.042 3.125 15.4812 3.125 14.167V4.16699C3.125 2.85283 3.68583 2.29199 5 2.29199H9.375V4.16699C9.375 6.18199 10.485 7.29199 12.5 7.29199H14.375V9.16699C14.375 9.51199 14.655 9.79199 15 9.79199C15.345 9.79199 15.625 9.51199 15.625 9.16699V6.66699C15.625 6.50116 15.5592 6.34199 15.4417 6.22533L10.4417 1.22533C10.3242 1.10783 10.1658 1.04199 10 1.04199H5C2.985 1.04199 1.875 2.15199 1.875 4.16699V14.167C1.875 16.182 2.985 17.292 5 17.292H9.16667C9.51167 17.292 9.79167 17.012 9.79167 16.667C9.79167 16.322 9.51167 16.042 9.16667 16.042ZM10.625 4.16699V3.17616L13.4908 6.04199H12.5C11.1858 6.04199 10.625 5.48116 10.625 4.16699ZM11.6667 8.54199C12.0117 8.54199 12.2917 8.82199 12.2917 9.16699C12.2917 9.51199 12.0117 9.79199 11.6667 9.79199H5.83333C5.48833 9.79199 5.20833 9.51199 5.20833 9.16699C5.20833 8.82199 5.48833 8.54199 5.83333 8.54199H11.6667ZM9.79167 12.5003C9.79167 12.8453 9.51167 13.1253 9.16667 13.1253H5.83333C5.48833 13.1253 5.20833 12.8453 5.20833 12.5003C5.20833 12.1553 5.48833 11.8753 5.83333 11.8753H9.16667C9.51167 11.8753 9.79167 12.1553 9.79167 12.5003ZM15 11.042C12.8175 11.042 11.0417 12.8178 11.0417 15.0003C11.0417 17.1828 12.8175 18.9587 15 18.9587C17.1825 18.9587 18.9583 17.1828 18.9583 15.0003C18.9583 12.8178 17.1825 11.042 15 11.042ZM15 17.7087C13.5067 17.7087 12.2917 16.4937 12.2917 15.0003C12.2917 13.507 13.5067 12.292 15 12.292C16.4933 12.292 17.7083 13.507 17.7083 15.0003C17.7083 16.4937 16.4933 17.7087 15 17.7087ZM16.4834 13.8636C16.7275 14.1078 16.7275 14.5037 16.4834 14.7478L15.0942 16.137C14.9767 16.2537 14.8183 16.3195 14.6525 16.3195C14.4867 16.3195 14.3275 16.2537 14.2108 16.1362L13.5166 15.442C13.2725 15.1978 13.2725 14.802 13.5166 14.5578C13.7608 14.3145 14.1567 14.3137 14.4008 14.5578L14.6533 14.8103L15.6008 13.8636C15.8441 13.6203 16.2392 13.6203 16.4834 13.8636Z" fill="#2E2E2E"/>
</svg>
