<svg width="20" height="20" viewBox="0 0 20 20" fill="none" xmlns="http://www.w3.org/2000/svg">
<path d="M10 18.1249C9.91168 18.1249 9.82332 18.1065 9.74082 18.069C9.46832 17.9449 3.05502 14.9707 2.02669 9.67405C1.62919 7.62489 2.02836 5.62571 3.09419 4.32737C3.95669 3.27571 5.19665 2.71653 6.68082 2.70903C6.68832 2.70903 6.69582 2.70903 6.70249 2.70903C8.39582 2.70903 9.42837 3.67322 9.9992 4.49405C10.5725 3.66989 11.6133 2.70153 13.3175 2.70903C14.8025 2.71653 16.0433 3.27571 16.9067 4.32737C17.9708 5.62488 18.3691 7.62403 17.9708 9.67487C16.9441 14.9715 10.53 17.9466 10.2575 18.0699C10.1766 18.1066 10.0883 18.1249 10 18.1249ZM6.70167 3.95821C6.69667 3.95821 6.69253 3.95821 6.68754 3.95821C5.57254 3.96321 4.68922 4.35403 4.06089 5.11987C3.22839 6.13403 2.92754 7.74738 3.25421 9.43571C4.05004 13.539 8.82751 16.2057 10 16.804C11.1725 16.2057 15.95 13.539 16.745 9.43571C17.0733 7.74655 16.7725 6.1332 15.9417 5.11987C15.3134 4.35487 14.43 3.96486 13.3125 3.95903C13.3075 3.95903 13.3025 3.95903 13.2984 3.95903C11.3217 3.95903 10.6209 5.93988 10.5926 6.02405C10.5059 6.27655 10.2675 6.44819 10.0008 6.44819C9.99916 6.44819 9.9983 6.44819 9.99747 6.44819C9.72997 6.44736 9.49165 6.27654 9.40665 6.02237C9.37915 5.93904 8.67751 3.95821 6.70167 3.95821Z" fill="#2E2E2E"/>
</svg>
