<svg width="20" height="20" viewBox="0 0 20 20" fill="none" xmlns="http://www.w3.org/2000/svg">
<path d="M12.5 1.875C9.39833 1.875 6.875 4.39833 6.875 7.5C6.875 7.92917 6.92341 8.35257 7.01925 8.76424L2.05831 13.725C1.94081 13.8425 1.875 14.0017 1.875 14.1667V17.5C1.875 17.845 2.155 18.125 2.5 18.125H5.83333C6.17833 18.125 6.45833 17.845 6.45833 17.5V15.625H8.33333C8.49917 15.625 8.65836 15.5592 8.77502 15.4417L11.2358 12.9808C11.6466 13.0766 12.07 13.125 12.5 13.125C15.6017 13.125 18.125 10.6017 18.125 7.5C18.125 4.39833 15.6017 1.875 12.5 1.875ZM12.5 11.875C12.0658 11.875 11.6391 11.8116 11.2341 11.6858C11.0116 11.6166 10.7708 11.6766 10.6075 11.8416L8.07414 14.375H5.83333C5.48833 14.375 5.20833 14.655 5.20833 15V16.875H3.125V14.4259L8.15837 9.3925C8.3217 9.22833 8.38254 8.98752 8.31421 8.76668C8.18921 8.36168 8.125 7.93498 8.125 7.50081C8.125 5.08831 10.0875 3.12581 12.5 3.12581C14.9125 3.12581 16.875 5.08831 16.875 7.50081C16.875 9.91331 14.9125 11.875 12.5 11.875ZM14.3917 6.66667C14.3917 7.24167 13.925 7.70833 13.35 7.70833C12.7758 7.70833 12.3041 7.24167 12.3041 6.66667C12.3041 6.09167 12.7667 5.625 13.3417 5.625H13.35C13.925 5.625 14.3917 6.09167 14.3917 6.66667Z" fill="#25314C"/>
</svg>
