<svg width="16" height="16" viewBox="0 0 16 16" fill="none" xmlns="http://www.w3.org/2000/svg">
<path d="M13.9627 3.52271L12.4774 2.03736C12.13 1.69069 11.696 1.49934 11.1787 1.5C10.688 1.50067 10.2273 1.69271 9.882 2.04004L1.646 10.314C1.552 10.408 1.5 10.5347 1.5 10.6667V14C1.5 14.276 1.724 14.5 2 14.5H5.33333C5.46533 14.5 5.5927 14.4473 5.68603 14.3547L13.96 6.118C14.3073 5.772 14.4993 5.31137 14.5 4.82137C14.5007 4.33071 14.3101 3.86937 13.9627 3.52271ZM5.12663 13.5H2.5V10.8734L8.49528 4.85067L11.1501 7.50464L5.12663 13.5ZM13.2547 5.40934L11.8587 6.79932L9.20068 4.14201L10.5907 2.74536C10.748 2.58736 10.9573 2.50067 11.1807 2.5H11.1813C11.404 2.5 11.6133 2.58665 11.7713 2.74398L13.2567 4.22933C13.414 4.38733 13.5007 4.59666 13.5007 4.81999C13.5 5.04265 13.4127 5.25201 13.2547 5.40934Z" fill="white"/>
</svg>
