<svg width="20" height="20" viewBox="0 0 20 20" fill="none" xmlns="http://www.w3.org/2000/svg">
<path d="M9.99996 7.08315C8.39163 7.08315 7.0833 8.39148 7.0833 9.99981C7.0833 11.6081 8.39163 12.9165 9.99996 12.9165C11.6083 12.9165 12.9166 11.6081 12.9166 9.99981C12.9166 8.39148 11.6083 7.08315 9.99996 7.08315ZM9.99996 12.0831C8.85163 12.0831 7.91663 11.1481 7.91663 9.99981C7.91663 8.85148 8.85163 7.91648 9.99996 7.91648C11.1483 7.91648 12.0833 8.85148 12.0833 9.99981C12.0833 11.1481 11.1491 12.0831 9.99996 12.0831ZM17.5683 11.8073C16.9258 11.4348 16.5258 10.7423 16.525 9.99981C16.5241 9.25814 16.9216 8.56648 17.5708 8.18981C17.9008 7.99815 18.0133 7.57313 17.8225 7.24313L16.4291 4.83814C16.2383 4.50814 15.815 4.39397 15.4833 4.58564C14.8358 4.95897 14.0325 4.95813 13.3841 4.58147C12.7433 4.21063 12.3458 3.51982 12.3458 2.78065C12.3458 2.39648 12.0333 2.08398 11.6483 2.08398H8.35247C7.96747 2.08398 7.65497 2.39648 7.65497 2.78065C7.65497 3.52065 7.25745 4.21065 6.61495 4.58315C5.96829 4.95731 5.16413 4.95897 4.51829 4.58564C4.18579 4.3948 3.76247 4.50898 3.57164 4.83814L2.17663 7.24481C1.9858 7.57481 2.09912 7.99897 2.43412 8.19231C3.07579 8.56397 3.47496 9.25481 3.47663 9.99648C3.47829 10.739 3.08079 11.4323 2.43079 11.809C2.27079 11.9015 2.1558 12.0515 2.1083 12.2306C2.0608 12.409 2.08581 12.5957 2.17831 12.7565L3.5708 15.1606C3.76247 15.4915 4.18663 15.6048 4.51829 15.414C5.16496 15.0415 5.96829 15.0423 6.60829 15.414L6.60997 15.4148C6.61164 15.4156 6.61329 15.4173 6.61495 15.4182C7.25579 15.7898 7.65247 16.4798 7.65164 17.2198C7.65164 17.604 7.96413 17.9165 8.3483 17.9165H11.6475C12.0316 17.9165 12.3441 17.604 12.3441 17.2207C12.3441 16.4807 12.7425 15.7898 13.385 15.4173C14.0308 15.0423 14.835 15.0415 15.4816 15.4148C15.8125 15.6056 16.2366 15.4915 16.4283 15.1623L17.8233 12.7548C18.015 12.4248 17.9008 12.0007 17.5683 11.8073ZM15.7766 14.6256C14.8941 14.1715 13.8308 14.1956 12.9658 14.6965C12.1091 15.1931 11.5616 16.099 11.515 17.0831H8.48164C8.43664 16.099 7.88997 15.194 7.0333 14.6965C6.16997 14.1956 5.10496 14.1715 4.22329 14.6248L2.96663 12.4565C3.79996 11.9215 4.31162 10.9898 4.30912 9.99315C4.30662 9.00398 3.79663 8.07814 2.96663 7.54147L4.22329 5.3723C5.10579 5.82647 6.16914 5.80231 7.03414 5.30064C7.8908 4.80397 8.43746 3.89897 8.48413 2.9148H11.515C11.5616 3.89897 12.1083 4.80398 12.9675 5.30232C13.83 5.80232 14.8933 5.82647 15.7766 5.3723L17.0333 7.54065C16.2008 8.07482 15.6908 9.00564 15.6925 9.99981C15.6933 10.9915 16.2033 11.919 17.0341 12.4556L15.7766 14.6256Z" fill="#25314C"/>
</svg>
