<svg width="20" height="20" viewBox="0 0 20 20" fill="none" xmlns="http://www.w3.org/2000/svg">
<path d="M10 18.9588C9.35917 18.9588 8.77253 18.6647 8.38837 18.153L7.13918 16.4863C6.99501 16.2955 6.76667 16.1813 6.52751 16.1813H5.27751C3.08334 16.1813 1.875 14.973 1.875 12.7788V4.44548C1.875 2.25131 3.08334 1.04297 5.27751 1.04297H14.7225C16.9167 1.04297 18.125 2.25131 18.125 4.44548V12.7788C18.125 14.973 16.9167 16.1813 14.7225 16.1813H13.4725C13.2333 16.1813 13.0042 16.2955 12.8608 16.4872L11.6108 18.153C11.2275 18.6647 10.6408 18.9588 10 18.9588ZM5.27751 2.29216C3.76834 2.29216 3.125 2.93549 3.125 4.44466V12.778C3.125 14.2872 3.76834 14.9305 5.27751 14.9305H6.52751C7.15751 14.9305 7.75997 15.2313 8.13914 15.7355L9.38914 17.403C9.68081 17.7913 10.3209 17.7913 10.6109 17.403L11.8617 15.7363C12.2408 15.2322 12.8433 14.9305 13.4733 14.9305H14.7233C16.2325 14.9305 16.8758 14.2863 16.8758 12.778V4.44466C16.8758 2.93549 16.2325 2.29216 14.7233 2.29216H5.27751ZM12.2467 13.1255C12.0684 13.1255 11.8891 13.0822 11.7241 12.9955L10 12.088L8.27749 12.9947C7.89582 13.1947 7.44416 13.163 7.09666 12.9097C6.74833 12.6563 6.57665 12.2347 6.64998 11.8097L6.97917 9.88885L5.53833 8.483C5.23916 8.19134 5.13328 7.76213 5.26245 7.36463C5.39162 6.96713 5.72914 6.68301 6.14248 6.62301L8.13334 6.33299L8.99495 4.58464C9.18579 4.19797 9.56998 3.95882 10.0008 3.95882C10.4316 3.95882 10.8167 4.19883 11.0067 4.5855L11.8683 6.3338L13.86 6.62382C14.2725 6.68382 14.6092 6.968 14.7392 7.3655C14.8683 7.763 14.7625 8.19215 14.4633 8.48382L13.0225 9.88966L13.3525 11.8122C13.425 12.2372 13.2533 12.6588 12.905 12.9113C12.7075 13.053 12.4784 13.1255 12.2467 13.1255ZM10 10.8163C10.1742 10.8163 10.3484 10.858 10.5067 10.9422L12.075 11.768L11.7758 10.0188C11.715 9.66463 11.8316 9.3038 12.0891 9.05297L13.3584 7.8138L11.6033 7.55883C11.2483 7.50716 10.9425 7.28384 10.7842 6.96134L10.0008 5.37214L9.21753 6.96216C9.0592 7.28383 8.7525 7.50716 8.39834 7.55883L6.64337 7.8138L7.9125 9.05297C8.17 9.30297 8.28664 9.66463 8.22581 10.0188L7.92664 11.7672L9.49504 10.9413C9.6517 10.858 9.82583 10.8163 10 10.8163ZM13.6792 7.86049H13.6875H13.6792ZM9.88413 5.13716C9.88413 5.13799 9.88413 5.13799 9.88413 5.13716C9.88413 5.13799 9.88413 5.13799 9.88413 5.13716Z" fill="#2E2E2E"/>
</svg>
