<svg width="20" height="20" viewBox="0 0 20 20" fill="none" xmlns="http://www.w3.org/2000/svg">
<path d="M10.0075 8.95833C8.05415 8.95833 6.46582 7.36917 6.46582 5.41667C6.46582 3.46417 8.05415 1.875 10.0075 1.875C11.9608 1.875 13.5492 3.46417 13.5492 5.41667C13.5492 7.36917 11.9608 8.95833 10.0075 8.95833ZM10.0075 3.125C8.74332 3.125 7.71582 4.1525 7.71582 5.41667C7.71582 6.68083 8.74332 7.70833 10.0075 7.70833C11.2717 7.70833 12.2992 6.68083 12.2992 5.41667C12.2992 4.1525 11.2708 3.125 10.0075 3.125ZM13.3307 18.125H6.66917C4.6525 18.125 3.54163 17.0209 3.54163 15.0159C3.54163 12.7984 4.79663 10.2083 8.33329 10.2083H11.6666C15.2033 10.2083 16.4583 12.7975 16.4583 15.0159C16.4583 17.0209 15.3474 18.125 13.3307 18.125ZM8.33329 11.4583C5.04746 11.4583 4.79163 14.1809 4.79163 15.0159C4.79163 16.3192 5.35334 16.875 6.66917 16.875H13.3307C14.6466 16.875 15.2083 16.3192 15.2083 15.0159C15.2083 14.1817 14.9525 11.4583 11.6666 11.4583H8.33329Z" fill="#2E2E2E"/>
</svg>
